<?xml version="1.0" encoding="UTF-8"?>
<svg id="Layer_1" data-name="Layer 1" xmlns="http://www.w3.org/2000/svg" viewBox="0 0 234 32.75">
  <defs>
    <style>
      .cls-1 {
        fill: #d22027;
      }
    </style>
  </defs>
  <path class="cls-1" d="M0,30.31H28.35l-1.63,2.28H0v-2.28Z"/>
  <path class="cls-1" d="M233.84,32.59h-34.71l1.79-2.28h33.08v2.28h-.16Z"/>
  <path class="cls-1" d="M0,26.07H31.61l-1.79,2.28H0v-2.28Z"/>
  <path class="cls-1" d="M0,21.84H34.87l-1.79,2.28H0v-2.28Z"/>
  <path class="cls-1" d="M233.84,28.35h-31.45l1.79-2.28h29.82v2.28h-.16Z"/>
  <path class="cls-1" d="M207.28,21.84h26.56v2.28h-28.35l1.79-2.28Z"/>
  <path class="cls-1" d="M30.64,32.59l14.99-20.04h18.58c2.12,0,2.12,.81,.98,2.12-.98,1.3-2.77,3.75-3.75,5.05-.49,.81-1.47,1.96,1.63,1.96h24.93c-1.96,2.93-8.8,11.08-20.86,11.08-9.78-.16-36.5-.16-36.5-.16Z"/>
  <path class="cls-1" d="M116.51,21.84l-8.15,10.92h-21.35l8.15-10.92h21.35Z"/>
  <path class="cls-1" d="M147.64,21.84l-8.15,10.92h-21.51l8.15-10.92h21.51Z"/>
  <path class="cls-1" d="M154.64,21.84s-1.63,2.12-2.28,3.1c-2.77,3.58-.33,7.82,8.47,7.82h34.55l8.15-10.92h-48.89Z"/>
  <path class="cls-1" d="M41.23,.16l-7.5,9.94h40.74c2.12,0,2.12,.81,.98,2.12-.98,1.3-2.77,3.75-3.75,5.05-.49,.65-1.47,1.96,1.63,1.96h16.62s2.77-3.58,4.89-6.68c3.1-4.07,.33-12.55-10.59-12.55-9.78,.16-43.02,.16-43.02,.16Z"/>
  <path class="cls-1" d="M149.43,19.23h-52.47L111.3,.16h21.51l-8.15,10.92h9.61L142.42,.16h21.51l-14.5,19.07Z"/>
  <path class="cls-1" d="M193.59,.16l-14.34,19.07h-22.81L170.77,.16h22.81Z"/>
</svg>