<?xml version="1.0" encoding="UTF-8"?>
<svg id="Layer_1" data-name="Layer 1" xmlns="http://www.w3.org/2000/svg" viewBox="0 0 234 64.83">
  <defs>
    <style>
      .cls-1 {
        fill: #f05b22;
      }

      .cls-2 {
        fill: #302876;
      }
    </style>
  </defs>
  <path class="cls-1" d="M232.56,56.41c0-3.6-2.56-6.24-6.08-6.24s-6.08,2.64-6.08,6.24,2.56,6.23,6.08,6.23,6.08-2.64,6.08-6.23Zm-7.68,.32v4.08h-1.32v-8.99h3.27c1.92,0,2.8,.84,2.8,2.47,0,1.01-.68,1.8-1.56,1.92v.04c.76,.12,1.04,.8,1.2,2.04,.12,.8,.28,2.2,.57,2.53h-1.56c-.36-.85-.33-2.04-.61-3.04-.23-.76-.64-1.04-1.51-1.04h-1.28s0,0,0,0h0Zm1.63-1.16c1.28,0,1.65-.68,1.65-1.28,0-.71-.37-1.27-1.65-1.27h-1.63v2.56h1.63Zm-7.56,.84c0-4.44,3.53-7.44,7.52-7.44s7.53,3,7.53,7.44-3.52,7.44-7.53,7.44-7.52-3.01-7.52-7.44Z"/>
  <path class="cls-1" d="M192.9,62.55l-8.67-9.72-8.59,9.72h-18.08l17.67-19.85-17.67-19.86h18.64l8.76,9.65,8.43-9.65h17.99l-17.58,19.77,17.83,19.93h-18.72Zm-70.05,0V0h34.72V13.94h-20.01v8.9h20.01v13.42h-20.01v12.31h20.01v13.98h-34.72Z"/>
  <path class="cls-2" d="M108.19,0V25.6h-.16c-3.24-3.73-7.29-5.03-11.99-5.03-9.63,0-16.88,6.55-19.43,15.2-2.9-9.54-10.39-15.38-21.5-15.38-9.02,0-16.14,4.05-19.86,10.64v-8.2H16.62V13.94h20.34V0H0V62.55H16.62v-26.29h16.56c-.51,2.02-.77,4.1-.76,6.18,0,13.04,9.97,22.21,22.69,22.21,10.7,0,17.75-5.03,21.48-14.18h-14.24c-1.92,2.75-3.39,3.57-7.24,3.57-4.46,0-8.32-3.9-8.32-8.51h28.99c1.26,10.36,9.33,19.3,20.41,19.3,4.78,0,9.16-2.35,11.83-6.32h.16v4.05h14.65V0h-14.65ZM47.26,36.45c.93-3.97,4.01-6.57,7.85-6.57,4.24,0,7.16,2.52,7.93,6.57h-15.78Zm52.05,16.59c-5.4,0-8.75-5.03-8.75-10.28,0-5.62,2.92-11.01,8.75-11.01s8.46,5.4,8.46,11.01c0,5.32-2.55,10.28-8.46,10.28Z"/>
</svg>