<?xml version="1.0" encoding="UTF-8"?>
<svg id="Layer_1" data-name="Layer 1" xmlns="http://www.w3.org/2000/svg" viewBox="0 0 234 39.07">
  <defs>
    <style>
      .cls-1 {
        fill: #284e80;
      }

      .cls-1, .cls-2, .cls-3 {
        fill-rule: evenodd;
      }

      .cls-2 {
        fill: #ca4256;
      }
    </style>
  </defs>
  <path class="cls-1" d="M8.3,.2h.29l.49,.1,.59,.1,1.56,.39,2.15,.39,1.17,.3,1.27,.29,1.37,.2,1.37,.39,1.47,.19,1.46,.39,4.69,.88,1.47,.39,1.56,.29,1.36,.29,1.47,.29,1.37,.29,1.37,.2,1.17,.29,1.17,.19,.98,.29,.88,.2,.78,.1,.68,.1,.49,.1,.29,.1h.19l1.27,.29,1.17,.2,.98,.29,.78,.19,.78,.29,.59,.2,.78,.39,.29,.2,.49,.49v.1l.1,.1v.1h4.2l.39,.1h.39l.29,.1h.29l.29,.1,.78,.39,.1,.2,.68,1.07,.2,1.27-.2,1.56-.49,1.46-.59,1.46-.59,1.17-.49,.78-.19,.29-.2,.1-.49,.19-.68,.29-.98,.39-1.07,.39-1.37,.58-1.47,.59-1.66,.59-1.86,.78-1.95,.68-1.95,.78-4.3,1.76-2.25,.88-2.25,.78-2.24,.97-2.34,.88-2.25,.78-2.15,.98-2.24,.78-2.05,.78-3.91,1.56-1.76,.68-1.66,.59-1.46,.58-1.27,.49-1.08,.49-.88,.29-.68,.29-.39,.1-.1,.1H55.28L63.49,0H8.3V.2Z"/>
  <path class="cls-1" d="M46.1,12.8l-.29,.1-1.95,.39h-.49l-.39,.1h-.39l-.59,.1-.29,.1-.2,.1-.1,.2v.19l.2,.2h.39l.39,.1h.98l.59-.1h.59l1.37-.2h.68l.78-.1,.68-.09,.59-.1,.68-.1h2.64l.29,.1,.2,.1,.19,.29v.39l-.1,.39-.1,.49-.2,.59-.29,.68-.2,.68-.1,.39,.19,.2,.2-.1,.39-.39,.19-.29,.29-.49,.29-.59,.29-.68,.29-.58,.2-.59,.1-.49v-.59l-.19-.49-.29-.29-.39-.29-.49-.2-.59-.1-.68-.1h-4.1l-.1,.1h-.1l-.19,.1-.2,.39-.19,.1-.2,.2-.29,.2h0Z"/>
  <path class="cls-1" d="M6.45,8.99L0,38.87l.29-.1,.59-.39,.98-.39,1.27-.68,1.46-.68,1.66-.88,1.95-.88,1.86-.98,1.95-.88,1.85-.98,1.86-.88,1.76-.88,1.47-.78,1.27-.58,.98-.49,.68-.29,.98-.49,.88-.49,1.07-.49,1.07-.58,.98-.49,1.17-.49,1.07-.59,1.17-.49,1.17-.59,5.86-2.44,2.64-.88,.39-.1,.39-.19,.49-.1,1.76-.59,2.05-.59,.68-.1,2.05-.59,1.17-.19,.39-.1,.29-.1h.29l.29-.1,.2-.2h.1v-.1l-.2-.39-.29-.1-.39-.1h-.39l-.58-.1h-.59l-.68,.1-1.17,.1-1.27,.19-1.37,.29-1.47,.3-1.46,.39-1.56,.49-1.47,.49-1.56,.49-1.46,.59-1.47,.49-1.37,.49-1.27,.49-1.17,.59-.98,.39-.88,.39-.68,.39-3.71-11.53h23.64l.1-.49-.39-.49-.59-.29-.88-.29-.98-.29-2.54-.39-4.1-.29H6.45Z"/>
  <path class="cls-2" d="M233.76,20.34H68.27l.24-2.49H234l-.24,2.49Z"/>
  <path class="cls-3" d="M75.79,14.85l-1.27-.1-1.27-.29-.98-.29-.88-.59-.58-.68-.39-.88-.1-.97,.1-1.17,.49-2.15,.39-1.95,.39-1.66,.29-1.37,.2-1.17,.19-.88,.1-.49,.1-.2h3.22l-.1,.39-.19,.98-.39,1.46-.29,1.66-.39,1.66-.49,2.44-.1,.29-.1,.78v1.37l.19,.49,.39,.39,.49,.29,.68,.19,.78,.1,.88-.1,.68-.1,.68-.29,.49-.49,.39-.49,.39-.59,.59-1.56,.1-.78,.29-1.17,.3-1.46,.29-1.56,.39-1.47,.2-1.27,.19-.88,.1-.29h3.22l-.59,2.83-.29,1.47-.2,.49v.19l-.1,.59-.29,1.46-.68,2.83-.1,.58-.29,.59-.2,.49-.29,.49-.39,.49-.78,.78-.49,.29-.58,.29-.49,.29-.58,.19-.59,.1-.59,.19-1.37,.2h-.78ZM226.01,2.35h-4.59l-.78,.19-.58,.39-.1,.19-.1,.29v.39l.1,.39,.29,.39,.29,.49,.88,.88,.58,.39,.49,.39,.59,.49,.97,.98,.39,.49,.58,1.17,.1,.58-.1,.68-.19,.69-.29,.68-.49,.59-.68,.49-.78,.39-.98,.29-1.27,.2-1.37,.1h-4.98l.58-2.34h5.27l.49-.1,.39-.1,.29-.19,.29-.39,.19-.39-.1-.78-.58-.78-.98-.78-.98-.88-1.07-.98-.88-1.08-.58-1.08-.1-1.27,.19-.68,.39-.78,.39-.59,.68-.49,.88-.39,.88-.29,1.17-.2h5.66l-.49,2.34h0Zm-11.33,0h-7.32l-.88,3.81h6.45l-.49,2.05h-6.45l-.78,4.01h7.33l-.49,2.34h-10.55L204.63,0h10.55l-.49,2.34h0Zm-12.7,0h-4.49l-2.64,12.21h-3.22l2.64-12.21h-4.59L190.27,0h12.21l-.49,2.34h0Zm-22.46,12.21l1.27-2.34h4.59l-1.27-9.28-6.45,11.62h-3.22L182.84,0h3.81l2.25,14.55h-9.38Zm-.59-12.21h-4.49l-2.64,12.21h-3.22l2.64-12.21h-4.59L167.22,0h12.21l-.49,2.34h0Zm-13.97,0h-4.49l-.49,.1-.39,.1-.29,.2-.39,.39v.68l.1,.39,.19,.39,.39,.49,.88,.88,.49,.39,.59,.39,1.46,1.47,.39,.49,.39,.59,.19,.59,.1,.58v.68l-.2,.69-.29,.68-.59,.59-.58,.49-.88,.39-.98,.29-1.17,.2-1.46,.1h-4.88l.49-2.34h5.37l.49-.1,.39-.1,.29-.19,.29-.39,.1-.39-.1-.78-.58-.78-.88-.78-.97-.88-1.08-.98-.88-1.08-.58-1.08-.1-1.27,.2-.68,.29-.78,.49-.59,.68-.49,.78-.39,.97-.29,1.17-.2h5.66l-.59,2.34h0Zm-29.5,4.88l-1.47,7.33h6.55l.78-.1h.78l1.36-.39,.78-.29,.68-.39,1.17-.78,1.17-1.17,.98-1.37,.39-.78,.29-.78,.19-.88,.1-.39,.1-.59,.19-1.37-.1-1.27-.29-1.07-.49-.98-.78-.88-.97-.59-1.27-.39-1.46-.1h-7.13l-1.56,7.23Zm10.65,0l-.1,.49-.29,.59-.19,.49-.19,.59-.29,.39-.39,.49-.78,.78-.98,.58-.49,.2-.58,.19-1.18,.2h-2.93l.97-4.98,1.08-4.88h4.2l.78,.29,.59,.39,.49,.58,.29,.59,.19,.78v1.56l-.19,.59v.1h0Zm-11.92-4.88h-7.23l-.88,3.81h6.35l-.39,2.05h-6.44l-.78,4.01h7.23l-.39,2.34h-10.55L124.24,0h10.45l-.49,2.34h0Zm-12.6,0h-4.59l-2.64,12.21h-3.12l2.64-12.21h-4.59L109.78,0h12.21l-.39,2.34Zm-17.09,12.21h-3.13L104.41,0h3.22l-3.12,14.55Zm-6.25,0h-4.01l-3.61-10.84h-.1l-2.25,10.84h-2.83L88.59,0h4.1l3.52,10.94L98.46,0h2.93l-3.13,14.55h0Zm-26.76,18.75h-.39l-.2-.1h-.59l-.19-.1h-.19l-.2-2.05h.78l.1,.1h.59l.78-.1,1.17-.39,.39-.39,.58-.78,.2-.39v-.39l.1-.49v-.49l-.1-.39-.2-.29-.58-.39h-.39l-.39-.1h-2.64l-2.64,12.21h-3.22l3.13-14.56h6.93l1.07,.1,.78,.39,.68,.49,.39,.68,.19,.68,.1,.78v.78l-.1,.68-.29,.98-.49,.88-.59,.78-.78,.68-.78,.49-1.95,.58-1.08,.1h0Zm160.77-6.74h-7.42l-.78,3.81h6.45l-.49,2.15h-6.44l-.78,4.01h7.33l-.49,2.25h-10.55l3.13-14.56h10.55l-.49,2.35h0Zm-12.99,.2l-.39-.1h-.29l-.78-.19-.49-.1h-.49l-.39-.1h-.58l-1.07,.1-.98,.29-.97,.39-.88,.68-.68,.68-.68,.88-.39,1.07-.39,1.17-.2,1.17,.1,1.07,.29,.88,.39,.68,.58,.59,.78,.49,.88,.29,.97,.1h.58l.59-.1h.49l.98-.19h.39l.49-.1,.39-.1-.78,2.44-.39,.1h-.49l-.39,.1h-.49l-.39,.1h-2.25l-1.56-.19-.68-.19-.68-.29-.58-.29-.58-.39-.49-.39-.49-.49-.29-.58-.29-.68-.29-.58-.1-.78v-.78l.1-.88,.1-.98,.29-.88,.29-.98,.78-1.56,.49-.68,1.17-1.17,.68-.49,1.36-.78,1.56-.59,.78-.19,.78-.1,.88-.1h2.05l.39,.1h.39l.39,.1h.39l.39,.1-.29,2.44h0Zm-16.11,12.01h-3.22l3.13-14.56h3.22l-3.12,14.56h0Zm-10.36,0h-3.81l-2.15-14.56h3.22l1.46,11.72,6.45-11.72h3.13l-8.31,14.56Zm-11.82-6.25l2.35,6.25h-3.52l-2.64-7.91h1.86l.58-.1,.58-.19,.49-.29,.39-.29,.39-.39,.19-.49,.2-.58,.1-.39v-.39l-.19-.59-.19-.19-.39-.19-.98-.19h-2.93l-2.64,12.21h-3.22l3.13-14.56h6.74l.97,.1,.88,.19,.68,.29,.49,.39,.39,.49,.29,.68,.1,.78v.78l-.1,.98-.29,.88-.39,.78-.49,.58-.59,.58-.78,.39-.68,.29-.78,.09h0Zm-9.28-5.96h-7.33l-.78,3.81h6.35l-.39,2.15h-6.45l-.78,4.01h7.33l-.49,2.25h-10.65l3.13-14.56h10.55l-.49,2.35h0Zm-13.29,0h-4.1l-.98,.19-.39,.1-.19,.19-.29,.19-.19,.39v.49l.1,.39,.19,.39,.39,.39,.39,.49,.49,.39,.49,.49,.58,.39,.49,.49,.58,.39,.39,.58,.39,.49,.39,.58,.2,.49,.09,.68v.58l-.19,.78-.29,.58-1.17,1.17-.78,.39-1.08,.29-1.17,.19h-6.35l.49-2.25h5.37l.49-.1,.39-.2,.29-.19,.29-.29,.19-.39-.19-.78-.58-.78-.88-.88-.97-.88-1.08-.88-.88-1.07-.58-1.17-.1-1.17,.19-.78,.29-.68,.49-.58,.68-.49,.78-.39,.98-.29,1.17-.19,1.36-.1h4.3l-.49,2.35h0Zm-17.38,12.21h-9.87l3.03-14.56h3.32l-2.64,12.31h6.64l-.49,2.25h0Zm-20.9,0l1.27-2.25h4.59l-1.36-9.38-6.35,11.62h-3.22l8.3-14.56h3.91l2.25,14.56h-9.38s0,0,0,0Zm-.58-12.21h-4.59l-2.64,12.21h-3.22l2.64-12.21h-4.49l.49-2.35h12.21l-.39,2.35Zm-13.97,0h-4.1l-.98,.19-.29,.1-.29,.19-.39,.39-.1,.19v.49l.1,.39,.58,.78,.39,.49,.49,.39,.49,.49,.59,.39,.59,.49,.49,.39,.39,.58,.49,.49,.29,.58,.2,.49,.19,.68-.1,.58-.2,.78-.29,.58-.49,.59-.59,.58-.88,.39-1.07,.29-1.17,.19h-6.25l.39-2.25h5.47l.39-.1,.78-.39,.19-.29,.2-.39-.1-.78-.59-.78-.88-.88-1.08-.88-.98-.88-.88-1.07-.59-1.17-.2-1.17,.2-.78,.39-.68,.49-.58,.58-.49,.78-.39,1.07-.29,1.17-.19,1.27-.1h4.3l-.49,2.34h0Zm-27.15,4.98l-.2,1.57,.29,2.05,.59,1.17,.39,.58,.88,.88,.58,.39,.59,.29,.68,.29,.78,.19,.78,.1h1.66l1.56-.19,.78-.19,.78-.29,.68-.29,.59-.39,.68-.39,.59-.49,.49-.58,.59-.58,.39-.68,.78-1.56,.29-.88,.19-.98,.2-.78v-1.46l-.1-.78-.1-.68-.59-1.18-.78-.97-.49-.39-.59-.39-.59-.29-.78-.29-.68-.19-.78-.1h-1.66l-1.56,.19-.78,.19-.78,.3-.68,.29-.58,.39-.68,.49-.59,.39-.59,.59-.49,.68-.49,.58-.39,.78-.29,.78-.29,.98-.29,.88h0Zm12.21,0l-.29,1.17-.49,1.07-.49,.88-.68,.68-.78,.59-.88,.49-.88,.29-1.08,.1-1.08-.1-.78-.39-.68-.49-.49-.68-.29-.68-.19-.97v-.98l.19-.98,.29-1.17,.49-1.07,.49-.88,.68-.68,.78-.68,.88-.39,.88-.29,1.07-.1,.98,.2,.88,.19,.68,.59,.49,.59,.29,.78,.2,.88v.98l-.19,1.08h0Z"/>
</svg>