<svg id="Icon_awesome-instagram" data-name="Icon awesome-instagram" xmlns="http://www.w3.org/2000/svg" xmlns:xlink="http://www.w3.org/1999/xlink" width="31.5" height="31.493" viewBox="0 0 31.5 31.493">
  <defs>
    <linearGradient id="linear-gradient" x1="0.128" y1="0.038" x2="0.832" y2="0.942" gradientUnits="objectBoundingBox">
      <stop offset="0" stop-color="#f91cdc"/>
      <stop offset="0.414" stop-color="#294bd4"/>
      <stop offset="0.788" stop-color="#aa9452"/>
      <stop offset="0.899" stop-color="#d2ab29"/>
      <stop offset="1" stop-color="#f20000"/>
    </linearGradient>
  </defs>
  <path id="Icon_awesome-instagram-2" data-name="Icon awesome-instagram" d="M15.748,9.91a8.075,8.075,0,1,0,8.075,8.075A8.062,8.062,0,0,0,15.748,9.91Zm0,13.324A5.249,5.249,0,1,1,21,17.984,5.259,5.259,0,0,1,15.748,23.234ZM26.037,9.58A1.883,1.883,0,1,1,24.153,7.7,1.879,1.879,0,0,1,26.037,9.58Zm5.348,1.911a9.32,9.32,0,0,0-2.544-6.6,9.381,9.381,0,0,0-6.6-2.544c-2.6-.148-10.394-.148-12.994,0a9.368,9.368,0,0,0-6.6,2.537,9.351,9.351,0,0,0-2.544,6.6c-.148,2.6-.148,10.394,0,12.994a9.32,9.32,0,0,0,2.544,6.6,9.393,9.393,0,0,0,6.6,2.544c2.6.148,10.394.148,12.994,0a9.32,9.32,0,0,0,6.6-2.544,9.381,9.381,0,0,0,2.544-6.6c.148-2.6.148-10.387,0-12.987ZM28.025,27.268a5.315,5.315,0,0,1-2.994,2.994c-2.073.822-6.992.632-9.283.632s-7.217.183-9.283-.632a5.315,5.315,0,0,1-2.994-2.994c-.822-2.073-.632-6.992-.632-9.283s-.183-7.217.632-9.283A5.315,5.315,0,0,1,6.465,5.707c2.073-.822,6.992-.632,9.283-.632s7.217-.183,9.283.632A5.315,5.315,0,0,1,28.025,8.7c.822,2.073.632,6.992.632,9.283S28.848,25.2,28.025,27.268Z" transform="translate(0.005 -2.238)" fill="url(#linear-gradient)"/>
</svg>
