<svg id="Icon_awesome-youtube" data-name="Icon awesome-youtube" xmlns="http://www.w3.org/2000/svg" width="31.5" height="22.149" viewBox="0 0 31.5 22.149">
  <path id="Icon_awesome-youtube-2" data-name="Icon awesome-youtube" d="M31.892,7.966a3.958,3.958,0,0,0-2.785-2.8C26.651,4.5,16.8,4.5,16.8,4.5s-9.85,0-12.307.662a3.958,3.958,0,0,0-2.785,2.8A41.521,41.521,0,0,0,1.05,15.6a41.521,41.521,0,0,0,.658,7.631,3.9,3.9,0,0,0,2.785,2.758c2.457.663,12.307.663,12.307.663s9.85,0,12.307-.663a3.9,3.9,0,0,0,2.785-2.758A41.521,41.521,0,0,0,32.55,15.6a41.521,41.521,0,0,0-.658-7.631ZM13.579,20.28V10.913L21.812,15.6,13.579,20.28Z" transform="translate(-1.05 -4.5)" fill="#b80000"/>
</svg>
