<svg id="Layer_1" data-name="Layer 1" xmlns="http://www.w3.org/2000/svg" viewBox="0 0 72 72"><defs><style>.cls-1{fill:#424143;}</style></defs><path class="cls-1" d="M34.52,59.92l-6.45-4.61Q22.3,51.19,16.54,47c-.18-.13-.39-.43-.35-.59.43-1.85.91-3.69,1.39-5.62l4.37,3C26.4,46.9,30.85,50,35.31,53a1.09,1.09,0,0,1,.56,1.42C35.37,56.22,35,58,34.52,59.92Z"/><path class="cls-1" d="M35.14,15.09c1.51-1,2.94-2,4.4-3,.13-.09.48,0,.67.16q7.15,4.53,14.29,9.1l2.85,1.83c-1.48,1-2.92,2-4.33,3-.35.24-.55,0-.81-.11L41.49,19.18l-5.41-3.47Z"/><path class="cls-1" d="M20.9,42l4.85-3.57c1.42-1,2.84-2.1,4.28-3.13a.76.76,0,0,1,.68-.07c3.2,2.14,6.38,4.3,9.57,6.46,0,0,.06.06.14.14-.87.63-1.76,1.23-2.59,1.9a2.08,2.08,0,0,0-.67,1c-.31,1-.49,2-.8,3a.94.94,0,0,0,.53,1.33c.17.08.33.21.61.38l-2.29,1.22c-1.15.62-1.15.62-2.19-.31a2,2,0,0,0,.9-2.36,3.1,3.1,0,0,0-2.71-2,2.23,2.23,0,0,0-2.46,1.45l-.55-.36-3.66-2.52c.38-.15.66-.27,1-.37l2.67-.89A5,5,0,0,1,30.66,43c1.45.23,2.74-.75,3.4-2.35.43-1,.42-1.07-.59-1.58-1.84-.92-3.71-.75-4.82.87a1.08,1.08,0,0,1-.48.31c-1.79.71-3.6,1.38-5.36,2.15A1.42,1.42,0,0,1,20.9,42Zm15.76,1.5c0-.89-.45-1.42-1.24-1.43-1,0-2,.72-2,1.43A1.69,1.69,0,0,0,35.14,45,1.39,1.39,0,0,0,36.66,43.48Z"/><path class="cls-1" d="M50.54,33.64l-3.1-2,1.84-1.54-.05-.1c-.65.35-1.28.73-1.94,1.06-.17.09-.45.17-.58.09-1.36-.83-2.7-1.69-4.09-2.58l1.77-1.56-.07-.11A18.45,18.45,0,0,0,42.5,28c-.57.41-.86-.09-1.26-.27s-.3-.48-.23-.78c.47-2,1-4,1.44-6.12l2.83,1.8-1.62,1.45.06.1c.58-.33,1.15-.67,1.73-1,.16-.08.41-.16.53-.09,1.39.86,2.76,1.76,4.18,2.67L48,27.63l.07.11c.74-.46,1.49-.87,2.19-1.37s1,.23,1.48.41.3.51.22.83C51.47,29.59,51,31.58,50.54,33.64Z"/><path class="cls-1" d="M35.78,28l12.68,8c-1,.74-2,1.45-3,2.15-1.33,1-1.34,1-2.72,0-3.57-2.4-7.13-4.81-10.78-7.28Z"/><path class="cls-1" d="M38.37,18.22c1.15.73,2.21,1.39,3.24,2.09a.8.8,0,0,1,.17.7c-.54,2-1.1,4.1-1.7,6.14a.84.84,0,0,0,.44,1.16c3.29,1.93,6.55,3.89,9.9,5.88l-.22,1a6.47,6.47,0,0,1-1,.23,1.06,1.06,0,0,1-.59-.17l-5.45-3.53C41,30.37,38.89,29,36.74,27.62a.7.7,0,0,1-.38-.88C37.05,23.93,37.69,21.12,38.37,18.22Z"/><path class="cls-1" d="M53.88,37.94c-1-.66-2-1.26-2.87-1.89a.64.64,0,0,1-.15-.55c.68-2.78,1.38-5.56,2.08-8.34a.74.74,0,0,1,.28-.41c1.39-.87,2.79-1.72,4.3-2.65C56.3,28.75,55.11,33.28,53.88,37.94Z"/><path class="cls-1" d="M31.51,31.59,43.4,39.64,41,41.42l-4.41-3.11c-1.75-1.23-3.49-2.49-5.25-3.7a.79.79,0,0,1-.37-1.12C31.16,32.9,31.3,32.28,31.51,31.59Z"/><path class="cls-1" d="M34.62,15.81c1.07.68,2.06,1.31,3,2,.1.07.13.35.09.51-.75,2.88-1.49,5.76-2.32,8.62-.15.51-.68.9-1,1.35l-.18-.09c.21-.87.4-1.74.65-2.6a.76.76,0,0,0-.39-1c-.59-.37-1.44-.68-1.64-1.21s.24-1.33.41-2C33.68,19.55,34.14,17.73,34.62,15.81Z"/><path class="cls-1" d="M43.94,53.48l-8.43,6.11c.15-.67.26-1.17.39-1.67.28-1.14.6-2.28.84-3.44a1.5,1.5,0,0,1,.93-1.2c1-.43,1.91-1,2.89-1.4a1.1,1.1,0,0,1,.87,0C42.26,52.38,43.05,52.92,43.94,53.48Z"/><path class="cls-1" d="M56.53,41.89c-.18.81-.34,1.62-.55,2.42a.9.9,0,0,1-.35.45q-4.93,3.7-9.89,7.39a3.59,3.59,0,0,1-.32.17c.19-.84.34-1.6.53-2.36a.67.67,0,0,1,.25-.35l10.19-7.76Z"/><path class="cls-1" d="M44.46,52.77c-.93-.59-1.79-1.11-2.63-1.66a.59.59,0,0,1-.21-.47c.22-1.68-1.14-2.25-2.45-1.92a1.78,1.78,0,0,1-1,.05c-1-.47-1-.5-.71-1.58l.51-2a.89.89,0,0,1,.1-.16l3.6,2.26c1.12.7,2.24,1.38,3.33,2.11a.7.7,0,0,1,.27.6C45,50.93,44.74,51.81,44.46,52.77Z"/><path class="cls-1" d="M33.74,26.33c-.21.84-.38,1.63-.61,2.4a1.26,1.26,0,0,1-.45.53L27,33.55l-4.38,3.33c.21-1,.33-1.76.56-2.53.07-.22.4-.38.63-.55l9.6-7.31A2.85,2.85,0,0,1,33.74,26.33Z"/><path class="cls-1" d="M21.7,37.27c-.65-.41-1.26-.78-1.84-1.2-.17-.12-.23-.39-.33-.6a9.54,9.54,0,0,0-.85-1.69,1.79,1.79,0,0,0-2.8-.17c-.4-.25-.83-.5-1.24-.78a.45.45,0,0,1-.16-.37c.22-1,.47-1.91.72-2.93,2.05,1.28,4,2.52,6,3.78,1.4.89,1.4.91.93,2.5C22,36.27,21.86,36.72,21.7,37.27Z"/><path class="cls-1" d="M20.7,41.43l-.84-4.25c.61.38,1.12.65,1.58,1s.7.22,1.09-.08c2.58-2,5.18-4,7.77-5.92a2.37,2.37,0,0,1,.28-.14c-.12.63-.22,1.21-.36,1.78a1,1,0,0,1-.32.47l-9,7.06S20.84,41.37,20.7,41.43Z"/><path class="cls-1" d="M20.08,41.49c-.81-.57-1.52-1-2.2-1.54a1,1,0,0,1-.28-.56c-.34-1.58-.68-3.16-1-4.74-.11-.55.21-.87.77-.76a1.53,1.53,0,0,1,1.2,1.18c.36,1.28.65,2.58,1,3.87C19.7,39.74,19.87,40.55,20.08,41.49Z"/><path class="cls-1" d="M33.73,25.17l-2.3,1.76-3.25-2.15L30.34,23Z"/><path class="cls-1" d="M53.11,38.48l3.38,2.19-2.32,1.78L51,40.25Z"/><path class="cls-1" d="M19.55,31.23c.76-.55,1.43-1,2.11-1.51a.59.59,0,0,1,.47,0c1,.61,2.05,1.24,3.14,1.9-.72.55-1.38,1.07-2.07,1.56a.57.57,0,0,1-.51,0C21.66,32.57,20.65,31.92,19.55,31.23Z"/><path class="cls-1" d="M42.34,46.74c.73-.53,1.39-1,2.08-1.48a.67.67,0,0,1,.57,0c1,.57,2,1.17,3.08,1.82-.76.57-1.47,1.12-2.21,1.65a.47.47,0,0,1-.41,0C44.43,48.06,43.42,47.42,42.34,46.74Z"/><path class="cls-1" d="M21.26,29.18c-.66.54-1.23,1.05-1.85,1.5a.65.65,0,0,1-.6.06c-1-.6-2-1.24-3.1-1.92.78-.58,1.51-1.12,2.26-1.64.08-.06.29,0,.4.08C19.32,27.88,20.26,28.51,21.26,29.18Z"/><path class="cls-1" d="M44,44.66c-.67.55-1.27,1.06-1.88,1.54-.12.09-.35.17-.45.11-1.06-.64-2.1-1.31-3.22-2,.79-.56,1.48-1.09,2.2-1.57a.58.58,0,0,1,.51,0C42.1,43.36,43,44,44,44.66Z"/><path class="cls-1" d="M25.39,26.94,27.5,25.3l3.39,2c-.73.56-1.41,1.09-2.11,1.6a.45.45,0,0,1-.39,0C27.4,28.3,26.43,27.64,25.39,26.94Z"/><path class="cls-1" d="M34.75,51.61c1.42-.69,2.77-1.36,4.13-2A2.84,2.84,0,0,1,40,49.45a.69.69,0,0,1,.8.61.81.81,0,0,1-.47,1c-1.14.54-2.26,1.13-3.4,1.68a.63.63,0,0,1-.52,0C35.84,52.39,35.33,52,34.75,51.61Z"/><path class="cls-1" d="M28.06,29.49c-.68.52-1.27,1-1.9,1.43a.67.67,0,0,1-.61.06c-1-.61-1.93-1.25-3-1.94.68-.51,1.31-1,2-1.45a.53.53,0,0,1,.46,0C26,28.19,27,28.82,28.06,29.49Z"/><path class="cls-1" d="M51.36,44.58,48.2,42.41c.64-.49,1.22-1,1.84-1.41a.57.57,0,0,1,.51,0c1,.57,2,1.17,3.13,1.81Z"/><path class="cls-1" d="M45.36,44.54,47.46,43l3.36,2-2.25,1.71Z"/><path class="cls-1" d="M49.61,36.2l3,2c-.76.55-1.44,1.06-2.14,1.54a.47.47,0,0,1-.4,0c-1-.54-1.88-1.09-2.9-1.69Z"/><path class="cls-1" d="M27.5,24.35l-3.12-1.84c.81-.58,1.55-1.13,2.31-1.66a.43.43,0,0,1,.35,0c.92.58,1.83,1.18,2.8,1.81Z"/><path class="cls-1" d="M24,27c-.67.53-1.28,1-1.91,1.48a.58.58,0,0,1-.51,0c-1-.55-1.91-1.13-3-1.78l2.25-1.61a.38.38,0,0,1,.34,0C22.15,25.7,23.07,26.33,24,27Z"/><path class="cls-1" d="M41.39,42.18c.76-.55,1.45-1.07,2.17-1.55a.55.55,0,0,1,.5,0c.89.59,1.75,1.22,2.69,1.87-.64.51-1.24,1-1.86,1.46a.55.55,0,0,1-.47,0C43.42,43.4,42.44,42.81,41.39,42.18Z"/><path class="cls-1" d="M21.54,24.58c.73-.54,1.35-1,2-1.45a.69.69,0,0,1,.61,0c.87.54,1.71,1.13,2.66,1.77-.7.52-1.34,1-2,1.5a.43.43,0,0,1-.35,0Z"/><path class="cls-1" d="M44.3,40.07c.75-.54,1.39-1,2.06-1.48a.57.57,0,0,1,.55,0c.87.57,1.72,1.18,2.62,1.82L47.48,42Z"/><path class="cls-1" d="M29.57,40.15c.9-1.17,2.45-1.29,4.08-.28-.48,1.57-1.51,2.4-2.84,2.32-.38,0-.62-.09-.68-.59A6,6,0,0,0,29.57,40.15Z"/><path class="cls-1" d="M22.42,43.1c2.11-.73,4.09-1.4,6.07-2.1.46-.17.61.1.72.42s.17.58-.25.74c-1.57.61-3.13,1.25-4.71,1.85a.82.82,0,0,1-.59-.07C23.27,43.71,22.9,43.43,22.42,43.1Z"/><path class="cls-1" d="M30.88,46.41a2.93,2.93,0,0,1,2.36,1.69,1.13,1.13,0,0,1-.35,1.36.93.93,0,0,1-1.3,0C31,49,30.3,48.55,29.66,48.1c-.49-.34-.57-.73-.1-1.09A6.34,6.34,0,0,1,30.88,46.41Z"/><path class="cls-1" d="M35.12,44.36c-.57,0-1.12-.37-1.14-.79s.73-.92,1.34-.93.69.37.69.83A.79.79,0,0,1,35.12,44.36Z"/></svg>