<svg id="Layer_1" data-name="Layer 1" xmlns="http://www.w3.org/2000/svg" viewBox="0 0 72 72"><defs><style>.cls-1{fill:#424143;}</style></defs><path class="cls-1" d="M43.47,59.61V39.82H55.93q-.9,9.88-1.79,19.79Z"/><path class="cls-1" d="M21.45,59.61,19.67,39.82H32.11V59.61Z"/><path class="cls-1" d="M41.46,29.49V59.61h-7V29.49Z"/><path class="cls-1" d="M32.1,37.18H18.44V29.61H32.1Z"/><path class="cls-1" d="M57.18,29.61v7.56H43.49V29.61Z"/><path class="cls-1" d="M35.05,27.88a7.72,7.72,0,0,1-4.17-2,7.46,7.46,0,0,1-2-8,7.59,7.59,0,0,1,6.59-5,7.47,7.47,0,0,1,2,14.78c-.44.09-.51.27-.51.66,0,2.77,0,5.54,0,8.31,0,.5-.12.68-.65.67-1.35,0-1.36,0-1.36-1.33q0-3.81,0-7.62Zm1.29-7.59.22-.16c-.18-.21-.33-.53-.56-.61a1.25,1.25,0,0,0-.89.07.82.82,0,0,0-.35,1,1.71,1.71,0,0,0,1.89,1.28A1.74,1.74,0,0,0,38,20.06a2.53,2.53,0,0,0-2.5-2.24,2.39,2.39,0,0,0-2.28,2.41,3.28,3.28,0,0,0,3.36,3.21,3.2,3.2,0,0,0,2.88-3.66A4.1,4.1,0,0,0,36,16.28,3.75,3.75,0,0,0,32,18.67a4.4,4.4,0,0,0,1,4.78,4.33,4.33,0,0,0,4.49,1.4,4.66,4.66,0,0,0,3.36-5.48,5.64,5.64,0,0,0-6.12-4.65,5.49,5.49,0,0,0-4.52,6.18A6.55,6.55,0,0,0,35,26.35c2.77.78,5.31-.72,6.87-2.31.07-.07.06-.21.12-.44-.7.55-1.23,1-1.83,1.44-3.05,2-6.37,1.44-8.45-1.43a5.63,5.63,0,0,1,.24-7A5,5,0,0,1,40,17.79,4.68,4.68,0,0,1,38.76,24a4.36,4.36,0,0,1-6.59-2.82A3.56,3.56,0,1,1,39,19.32a2.82,2.82,0,1,1-5.43,1.42,2.06,2.06,0,1,1,4-.8,1.3,1.3,0,1,1-2.54.57.79.79,0,0,1,.27-.7c.16-.09.49.09.72.19S36.26,20.19,36.34,20.29Z"/><path class="cls-1" d="M27.07,17.1a5.33,5.33,0,0,1,0,2.38,5.52,5.52,0,0,1-1.73,3.17c-.31.28-.28.48-.09.8,1.67,2.84,3.32,5.7,5,8.54.27.46.19.65-.25.89-1.16.63-1.16.65-1.84-.5q-2.32-4-4.63-8a.54.54,0,0,0-.74-.31,6,6,0,0,1-5.68-1.34Z"/><path class="cls-1" d="M27.52,15.52a1.44,1.44,0,0,1-.84,1.32L17.61,22l-.6.34a1.43,1.43,0,0,1-2-.47,1.38,1.38,0,0,1,.61-1.94c2.49-1.44,5-2.86,7.48-4.29.77-.44,1.53-.9,2.32-1.32A1.39,1.39,0,0,1,27.52,15.52Z"/><path class="cls-1" d="M25.19,14,15.3,19.61A6,6,0,0,1,25.19,14Z"/><path class="cls-1" d="M36.23,20.33c-.1-.06-.15-.19-.24-.27a.57.57,0,0,0-.13-.08.81.81,0,0,0-.22-.07.31.31,0,0,0-.23.05.19.19,0,0,0,0,.22"/></svg>