<svg id="Layer_1" data-name="Layer 1" xmlns="http://www.w3.org/2000/svg" viewBox="0 0 72 72"><defs><style>.cls-1{fill:#424143;}</style></defs><path class="cls-1" d="M36.28,60h-.56a6.27,6.27,0,0,0-.58-.29L18,52.56c-.67-.28-.75-.4-.75-1.12,0-3.1,0-6.21,0-9.32a.56.56,0,0,0-.42-.61c-1.36-.54-2.71-1.11-4.05-1.69a4.6,4.6,0,0,1-.79-.54v-.56l5.11-5-5.11-5v-.56a4.6,4.6,0,0,1,.79-.54c2.58-1.09,5.18-2.17,7.77-3.23a.61.61,0,0,0,.45-.68c0-1.83,0-3.66,0-5.49,0-.74.14-.92.88-1.07C24,16.79,26,16.37,28.08,16c.37-.07.44-.22.43-.55a8.34,8.34,0,0,1,0-1.5A2.41,2.41,0,0,1,30.28,12H41.72l.15.09A2.28,2.28,0,0,1,43.5,14.4c0,.36,0,.72,0,1.07s.07.43.39.49c2.06.39,4.1.81,6.15,1.23.85.17,1,.32,1,1.19v5.86l.53.23c2.56,1.07,5.13,2.13,7.68,3.21a4.6,4.6,0,0,1,.79.54v.56l-5.11,5,5.11,5v.56a5.5,5.5,0,0,1-.83.56c-1.33.58-2.67,1.14-4,1.68a.55.55,0,0,0-.42.61c0,3,0,6.09,0,9.13,0,1,0,1-.89,1.36L38.41,59.06C37.69,59.36,37,59.69,36.28,60ZM18.75,42.32v.55c0,2.64,0,5.28,0,7.92a.58.58,0,0,0,.43.64L32.3,56.9l2.93,1.21v-15l-.38.34c-1.13,1.13-2.26,2.25-3.37,3.39a1,1,0,0,1-1.26.25c-2.45-1-4.92-2.06-7.38-3.08Zm18,15.78.33-.11q7.9-3.3,15.81-6.58a.51.51,0,0,0,.36-.55c0-2.7,0-5.41,0-8.11,0-.12,0-.24,0-.41l-.5.2L41.92,47c-.8.33-.88.31-1.51-.32l-3.28-3.28c-.1-.1-.22-.19-.37-.32ZM49.5,22.34l-8.37-1.91a.55.55,0,0,0-.4.2c-.32.42-.62.86-.93,1.29-.47.66-.7.72-1.41.37l-1.62-.81V40.1l.46-.17Q43.16,37.46,49.07,35a.6.6,0,0,0,.44-.68q0-5.75,0-11.48ZM35.22,40.11V21.48l-1.79.89a.76.76,0,0,1-1.1-.27c-.33-.45-.68-.9-1-1.38a.55.55,0,0,0-.7-.26c-1.47.35-2.95.68-4.42,1l-3.72.87c0,.11,0,.17,0,.23,0,4,0,7.94,0,11.9,0,.32.16.4.39.49l9.24,3.85Zm2.13,1.39.35.38C38.82,43,40,44.12,41.07,45.27a.64.64,0,0,0,.84.15L57.33,39c.18-.07.35-.16.57-.26l-.36-.38c-1.13-1.12-2.26-2.24-3.37-3.39a.62.62,0,0,0-.81-.14Q47,37.5,40.58,40.15ZM14.12,38.74l.27.13,15.83,6.6a.51.51,0,0,0,.65-.14c1-1,2-2,3-3l.85-.81c-.17-.08-.24-.13-.33-.16L18.53,34.77a.51.51,0,0,0-.65.15q-1.74,1.77-3.5,3.52A2.81,2.81,0,0,0,14.12,38.74ZM21,25.88l-6.84,2.85c0,.07,0,.11,0,.13,1.27,1.28,2.55,2.57,3.84,3.83a.48.48,0,0,0,.44,0c.74-.29,1.47-.61,2.21-.89a.46.46,0,0,0,.32-.53c0-1.09,0-2.18,0-3.28Zm36.94,2.88L51,25.87c0,1.91,0,3.75,0,5.59a.47.47,0,0,0,.25.32c.77.34,1.54.67,2.33,1a.44.44,0,0,0,.4-.07C55.29,31.41,56.58,30.12,57.94,28.76ZM36,18.34c.63-.46,1.27-.92,1.91-1.4.47-.35.95-.7,1.4-1.08a1.19,1.19,0,0,0,.34-1.4,1.33,1.33,0,0,0-1.23-.94q-2.43-.06-4.86,0a1.33,1.33,0,0,0-1.23.94,1.2,1.2,0,0,0,.34,1.4c.29.26.59.51.9.74ZM49.5,20.8c0-.67,0-1.29,0-1.92,0-.11-.19-.29-.32-.32q-2.89-.6-5.81-1.17a.43.43,0,0,0-.36.09c-.38.49-.73,1-1.13,1.56Zm-27,0,7.64-1.76c-.4-.56-.74-1.07-1.11-1.55a.43.43,0,0,0-.35-.12c-2,.39-3.94.78-5.91,1.19a.44.44,0,0,0-.26.29C22.49,19.5,22.5,20.14,22.5,20.81Zm8.57-7.29c-.79,0-1.07.21-1.07,1,0,.45,0,.9,0,1.35a1.56,1.56,0,0,0,.25.77c.89,1.28,1.8,2.54,2.71,3.81.09.13.19.24.29.37l1.86-.93.13-.17c-.31-.25-.62-.51-1-.75-.66-.47-1.34-.91-2-1.4C30.75,16.32,30.46,15.39,31.07,13.52Zm9.85,0,.11.3a2.68,2.68,0,0,1-.6,3,11.49,11.49,0,0,1-1.25,1c-.53.39-1.09.74-1.61,1.14a7.93,7.93,0,0,0-.76.77l1.9,1c.06,0,.09-.05.11-.08.72-1,1.38-2.05,2.17-3a4,4,0,0,0,1-3.25C41.94,13.73,41.69,13.46,40.92,13.53ZM51,34.18l1-.44-1-.39ZM21,34.17v-.84l-1,.43Z"/><path class="cls-1" d="M42.75,25.5h3.56c.68,0,.94.26.94.93,0,1.88,0,3.75,0,5.63a.91.91,0,0,1-.65,1c-1.15.44-2.28.93-3.44,1.36a1.34,1.34,0,0,1-.84,0C41.17,34,40,33.46,38.89,33a.91.91,0,0,1-.65-1c0-1.88,0-3.75,0-5.63,0-.67.26-.93.94-.93Zm-3,1.52c0,1.53,0,3,0,4.55,0,.1.17.23.29.28.79.34,1.59.66,2.39,1a1.06,1.06,0,0,0,.61,0c.79-.29,1.56-.63,2.35-.92a.48.48,0,0,0,.36-.55c0-1.31,0-2.62,0-3.93,0-.13,0-.26,0-.39Z"/><path class="cls-1" d="M29.29,25.5h3.52c.68,0,.94.26.94.93,0,1.88,0,3.75,0,5.62a.92.92,0,0,1-.65,1c-1.15.44-2.28.93-3.43,1.36a1.37,1.37,0,0,1-.85,0c-1.15-.43-2.29-.92-3.44-1.36a.92.92,0,0,1-.65-1c0-1.87,0-3.75,0-5.62,0-.68.26-.94.94-.94Zm3,1.53h-6v4.71L29,32.84a.66.66,0,0,0,.44,0c.86-.32,1.71-.66,2.56-1a.44.44,0,0,0,.23-.33C32.25,30,32.25,28.54,32.25,27Z"/><polygon class="cls-1" points="36.81 41.74 41.53 46.13 58.41 39.09 53.8 34.17 36.81 41.74"/><polygon class="cls-1" points="17.89 33.33 13.31 28.41 21.75 25.03 21.75 32.34 17.89 33.33"/><polygon class="cls-1" points="25.41 31.69 29.61 33.76 32.9 31.69 32.9 26.55 25.69 26.34 25.41 31.69"/><polygon class="cls-1" points="38.72 31.5 42.75 33.75 46.5 32.06 46.5 26.68 39.01 26.34 38.72 31.5"/><polygon class="cls-1" points="30.56 46.31 35.53 41.25 17.58 33.75 12.75 38.72 30.56 46.31"/><polygon class="cls-1" points="50.53 31.97 54.29 33.34 58.88 28.41 50.53 24.94 50.53 31.97"/><path class="cls-1" d="M41.13,19.5,50.21,22s-.12-3.89,0-3.85l-7.07-1.69Z"/><polygon class="cls-1" points="22.22 17.91 21.92 21.66 31.14 19.23 28.69 16.22 22.22 17.91"/><polygon class="cls-1" points="38 41 39.76 43.77 45 41 47.26 38.74 46 37 44 38 38 41"/><path class="cls-1" d="M38.7,43a18.07,18.07,0,0,0,2.58-.94,1.12,1.12,0,0,0,.42-.39,1.14,1.14,0,0,0,.27-.51,1.08,1.08,0,0,0,0-.59,1.12,1.12,0,0,0-.18-.56,1.5,1.5,0,0,0-.89-.69l-.4-.06a1.58,1.58,0,0,0-.76.21l-.31.13.36-.15a15.8,15.8,0,0,1-1.9.66,1.56,1.56,0,0,0-.9.69,1.12,1.12,0,0,0-.18.56,1.22,1.22,0,0,0,0,.6,1.5,1.5,0,0,0,.69.89A1.54,1.54,0,0,0,38.7,43Z"/></svg>