<svg id="Layer_1" data-name="Layer 1" xmlns="http://www.w3.org/2000/svg" viewBox="0 0 72 72"><defs><style>.cls-1{fill:#424143;}.cls-2{font-size:12px;font-family:MyriadPro-Regular, Myriad Pro;}.cls-3{letter-spacing:-0.01em;}</style></defs><path class="cls-1" d="M12.05,49.38a8,8,0,0,1,.63-1.63,3.06,3.06,0,0,1,2.72-1.37H35.84a.65.65,0,0,0,.68-.41Q42,35.2,47.47,24.41a7.27,7.27,0,0,0,.38-.91A1.7,1.7,0,0,0,45,21.87c-.11.12-.19.26-.3.36a.74.74,0,0,1-1,.1.7.7,0,0,1-.31-.89c.06-.19.16-.38.2-.57A1.64,1.64,0,0,0,42.65,19a1.73,1.73,0,0,0-2,.39c-.51.6-.87.71-1.28.41s-.42-.73,0-1.4a10,10,0,0,1,7.18-4.65,10.84,10.84,0,0,1,8.15,2.12,10.51,10.51,0,0,1,4.21,6.31,10,10,0,0,1-1.06,7.27.81.81,0,0,1-1.06.42c-.41-.18-.51-.6-.38-1.12a2.67,2.67,0,0,0,.09-1.25,1.56,1.56,0,0,0-1.36-1.19,1.59,1.59,0,0,0-1.58.61c-.07.08-.13.17-.21.25a.75.75,0,0,1-1,.13.78.78,0,0,1-.31-.95,3.6,3.6,0,0,0,.19-1.21,1.61,1.61,0,0,0-1.4-1.32,1.51,1.51,0,0,0-1.67.89L39.52,43.59a1.78,1.78,0,0,0-.18.49l.37-.34,9.83-9.82a3.19,3.19,0,0,1,5,4,7.45,7.45,0,0,1-.6.66C49.62,42.86,45.32,47.13,41,51.43a4.59,4.59,0,0,1-2.92,1.3,6,6,0,0,1-.74,0H15.53a3.2,3.2,0,0,1-3.14-1.85,7.39,7.39,0,0,1-.34-1.16Z"/><path class="cls-1" d="M12.05,53.59l.6,0H39.93a1.12,1.12,0,0,0,.89-.37L58.28,35.75a3.7,3.7,0,0,1,.42-.38.76.76,0,0,1,1,.09.73.73,0,0,1,.08,1,4.83,4.83,0,0,1-.37.42L49.9,46.38l-.37.39c.13.14.24.27.36.38l9.52,9.53c.61.61.7,1,.29,1.44s-.82.31-1.39-.3a1,1,0,0,0-.8-.27H12.7c-.22,0-.43,0-.65,0Zm30.79-.06h11L48.33,48Z"/><path class="cls-1" d="M20.61,18.49c-.38-.36-.74-.69-1.09-1a.81.81,0,1,1,1.12-1.13c.35.35.68.73,1,1.1a6.9,6.9,0,0,1,2.9-1.28c.1,0,.23-.22.24-.35,0-.42,0-.84,0-1.26a.81.81,0,0,1,.79-.87.82.82,0,0,1,.8.86c0,.42,0,.84,0,1.26,0,.13.13.34.23.36a6.94,6.94,0,0,1,2.91,1.28c.34-.37.67-.74,1-1.09a.8.8,0,1,1,1.12,1.12c-.35.36-.73.68-1.1,1a6.84,6.84,0,0,1,1.29,2.91c0,.1.23.22.36.23.39,0,.78,0,1.17,0,.59,0,.95.34.95.81s-.36.77-1,.79c-.39,0-.78,0-1.17,0-.12,0-.33.12-.34.21a6.84,6.84,0,0,1-1.28,2.93c.37.35.74.68,1.09,1a.81.81,0,1,1-1.13,1.12c-.35-.35-.68-.72-1-1.09a6.76,6.76,0,0,1-2.89,1.28.44.44,0,0,0-.23.31c0,.4,0,.81,0,1.22,0,.6-.33,1-.8.95s-.78-.36-.79-1c0-.39,0-.78,0-1.17,0-.13-.14-.33-.24-.35a6.76,6.76,0,0,1-2.89-1.28c-.35.38-.69.75-1,1.09a.81.81,0,1,1-1.13-1.12c.35-.36.72-.69,1.09-1.05a6.74,6.74,0,0,1-1.28-2.93c0-.08-.22-.19-.34-.2-.42,0-.84,0-1.26,0a.81.81,0,0,1-.88-.78.82.82,0,0,1,.86-.8c.42,0,.85,0,1.27,0,.13,0,.34-.13.36-.23A6.64,6.64,0,0,1,20.61,18.49Z"/><text class="cls-2" transform="translate(17.2 -2.7)">holid<tspan class="cls-3" x="25.66" y="0">a</tspan><tspan x="31.34" y="0">y</tspan></text></svg>